<mxfile host="app.diagrams.net" modified="2023-12-18T07:40:32.128Z" agent="Mozilla/5.0 (Macintosh; Intel Mac OS X 10_15_7) AppleWebKit/537.36 (KHTML, like Gecko) Chrome/119.0.0.0 Safari/537.36" version="22.1.11" etag="686XfeFYRvE0B6bfn_D6" type="github">
  <diagram name="Page-1" id="ifc9RoiTQRwNK-HqHFEM">
    <mxGraphModel>
      <root>
        <mxCell id="0" />
        <mxCell id="1" parent="0" />
      </root>
    </mxGraphModel>
  </diagram>
</mxfile>
